<?xml version="1.0" encoding="UTF-8"?>
<!DOCTYPE svg PUBLIC "-//W3C//DTD SVG 1.1//EN" "http://www.w3.org/Graphics/SVG/1.1/DTD/svg11.dtd">
<svg xmlns="http://www.w3.org/2000/svg" version="1.1" width="1024px" height="1024px" style="shape-rendering:geometricPrecision; text-rendering:geometricPrecision; image-rendering:optimizeQuality; fill-rule:evenodd; clip-rule:evenodd" xmlns:xlink="http://www.w3.org/1999/xlink">
<g><path style="opacity:0.647" fill="#2b2b2a" d="M 532.5,252.5 C 544.963,253.756 557.296,255.756 569.5,258.5C 569.083,259.124 568.416,259.457 567.5,259.5C 555.538,257.434 543.538,255.601 531.5,254C 532.056,253.617 532.389,253.117 532.5,252.5 Z"/></g>
<g><path style="opacity:1" fill="#fefefe" d="M 720.5,466.5 C 720.719,467.675 720.386,468.675 719.5,469.5C 712.969,467.49 706.635,464.99 700.5,462C 696,456.833 691.5,451.667 687,446.5C 687.251,455.492 684.085,462.992 677.5,469C 666.835,474.587 657.335,481.753 649,490.5C 641.936,501.237 635.269,512.237 629,523.5C 619.035,534.899 606.535,541.066 591.5,542C 597.971,529.997 601.804,517.163 603,503.5C 604.525,482.985 602.025,462.985 595.5,443.5C 594.416,444.665 593.583,445.998 593,447.5C 588.945,430.882 580.445,417.049 567.5,406C 538.82,383.543 506.154,370.876 469.5,368C 458.524,366.715 447.524,366.382 436.5,367C 441.446,368.806 446.112,371.139 450.5,374C 419.227,376.419 391.227,387.086 366.5,406C 367,406.167 367.5,406.333 368,406.5C 372.453,404.814 376.953,403.648 381.5,403C 367.642,412.944 357.809,425.777 352,441.5C 357.521,437.159 363.354,434.159 369.5,432.5C 366.087,440.15 363.921,448.15 363,456.5C 358.464,493.37 367.464,526.37 390,555.5C 395.198,561.033 400.698,566.2 406.5,571C 403.202,571.299 402.868,572.133 405.5,573.5C 405.44,574.043 405.107,574.376 404.5,574.5C 400.95,572.381 397.283,570.881 393.5,570C 438.546,609.087 487.212,614.087 539.5,585C 544.286,581.882 548.786,578.382 553,574.5C 550.238,595.986 555.905,614.986 570,631.5C 574.785,637.629 580.285,642.962 586.5,647.5C 573.654,660.769 558.32,670.269 540.5,676C 546.833,676.667 553.167,676.667 559.5,676C 570.941,675.031 582.274,673.697 593.5,672C 587.833,679 582.167,686 576.5,693C 593.018,690.076 608.852,684.909 624,677.5C 623.404,684.163 622.404,690.829 621,697.5C 620.333,701.5 620.333,705.5 621,709.5C 626.933,700.62 633.1,691.953 639.5,683.5C 640.107,683.624 640.44,683.957 640.5,684.5C 638.413,687.341 636.913,690.341 636,693.5C 643.029,688.305 650.195,683.305 657.5,678.5C 659.018,696.573 663.352,713.906 670.5,730.5C 659.588,726.914 649.922,721.248 641.5,713.5C 640.833,726.5 640.167,739.5 639.5,752.5C 617.055,744.711 599.222,731.045 586,711.5C 581.703,727.439 575.703,742.772 568,757.5C 566.477,760.555 564.477,763.222 562,765.5C 538.163,751.831 519.996,732.831 507.5,708.5C 496.387,730.612 480.387,748.278 459.5,761.5C 449.998,748.494 443.165,734.161 439,718.5C 436.871,710.848 434.871,703.181 433,695.5C 415.028,715.314 393.862,730.648 369.5,741.5C 362.991,714.177 360.824,686.51 363,658.5C 344.069,675.305 322.736,688.305 299,697.5C 297.547,676.852 297.213,656.186 298,635.5C 298.699,625.985 300.032,616.651 302,607.5C 290.363,620.138 278.363,632.471 266,644.5C 266.26,620.856 266.593,597.19 267,573.5C 268.985,555.861 272.985,538.861 279,522.5C 269.465,528.362 260.798,535.362 253,543.5C 254.446,508.379 260.446,474.046 271,440.5C 277.455,422.082 286.622,405.248 298.5,390C 288.378,393.719 278.378,398.053 268.5,403C 265.736,403.532 263.07,404.366 260.5,405.5C 259.893,405.376 259.56,405.043 259.5,404.5C 271.524,388.006 284.858,372.506 299.5,358C 308.886,349.443 319.22,342.277 330.5,336.5C 335.473,334.013 340.473,331.513 345.5,329C 335.731,328.921 326.064,327.921 316.5,326C 315.944,325.617 315.611,325.117 315.5,324.5C 339.53,313.655 363.53,302.489 387.5,291C 401.077,285.606 415.077,281.773 429.5,279.5C 422.963,275.73 416.963,271.23 411.5,266C 446.825,264.676 482.159,264.343 517.5,265C 561.454,267.653 602.787,279.32 641.5,300C 675.284,319.451 702.118,345.951 722,379.5C 722.167,382.333 722.333,385.167 722.5,388C 720.343,403.108 718.677,418.275 717.5,433.5C 718.281,444.526 719.281,455.526 720.5,466.5 Z"/></g>
<g><path style="opacity:0.584" fill="#282828" d="M 718.5,350.5 C 726.865,358.55 732.698,368.216 736,379.5C 736.818,385.349 736.652,391.015 735.5,396.5C 734.709,390.581 734.209,384.581 734,378.5C 733.489,376.122 732.822,373.788 732,371.5C 727.479,364.443 722.979,357.443 718.5,350.5 Z"/></g>
<g><path style="opacity:0.805" fill="#131313" d="M 389.5,276.5 C 389.611,277.117 389.944,277.617 390.5,278C 386.58,279.598 382.914,281.598 379.5,284C 375.275,285.02 370.942,286.353 366.5,288C 355.471,294.213 344.138,299.713 332.5,304.5C 330.833,306 329.167,307.5 327.5,309C 329.654,310.184 329.32,311.35 326.5,312.5C 324.694,311.141 323.194,311.475 322,313.5C 321.667,312.833 321.333,312.167 321,311.5C 317.997,314.541 314.831,315.207 311.5,313.5C 302.928,316.122 294.928,319.789 287.5,324.5C 286.833,323.833 286.167,323.167 285.5,322.5C 284.167,322.833 282.833,323.167 281.5,323.5C 280.738,324.628 280.071,325.795 279.5,327C 281.224,329.284 282.891,331.618 284.5,334C 290.916,338.199 297.416,341.366 304,343.5C 304.807,339.551 305.307,339.551 305.5,343.5C 306.822,343.33 307.989,343.663 309,344.5C 309.315,341.853 310.482,341.187 312.5,342.5C 315.194,339.794 314.86,337.961 311.5,337C 313.066,336.392 314.4,335.558 315.5,334.5C 320.68,334.847 325.68,335.513 330.5,336.5C 319.22,342.277 308.886,349.443 299.5,358C 284.858,372.506 271.524,388.006 259.5,404.5C 255.518,409.095 251.518,413.762 247.5,418.5C 249.421,419.641 251.421,419.808 253.5,419C 259.414,416.69 265.414,415.024 271.5,414C 264.153,426.196 257.487,438.696 251.5,451.5C 251.662,449.473 251.495,447.473 251,445.5C 248.871,446.863 248.371,446.529 249.5,444.5C 247.009,443.459 247.009,442.626 249.5,442C 249.273,440.865 248.94,439.698 248.5,438.5C 245.876,439.076 245.209,440.41 246.5,442.5C 244.515,442.604 243.015,443.937 242,446.5C 239.781,450.768 238.281,455.268 237.5,460C 237.682,462.343 238.682,464.176 240.5,465.5C 239.098,466.842 239.431,467.676 241.5,468C 238.456,468.359 238.122,469.026 240.5,470C 239.167,470.333 237.833,470.667 236.5,471C 236.957,471.414 237.291,471.914 237.5,472.5C 236.689,473.216 236.022,474.05 235.5,475C 236.893,476.301 237.393,477.801 237,479.5C 236.275,477.842 235.108,477.342 233.5,478C 232.167,478.667 232.167,479.333 233.5,480C 231.274,481.227 229.774,483.061 229,485.5C 226.448,494.982 224.614,504.315 223.5,513.5C 223.326,515.693 223.993,517.527 225.5,519C 224.313,520.019 223.313,521.186 222.5,522.5C 224.946,523.983 224.612,525.149 221.5,526C 221.422,528.953 221.755,531.953 222.5,535C 221.853,536.609 221.02,538.109 220,539.5C 219.667,538.833 219.333,538.167 219,537.5C 217.405,540.988 216.905,544.488 217.5,548C 215.692,550.835 214.692,554.002 214.5,557.5C 215.068,559.204 215.068,560.704 214.5,562C 216.878,562.974 216.544,563.641 213.5,564C 215.125,564.853 215.458,565.853 214.5,567C 215.672,567.419 216.672,568.085 217.5,569C 216.037,570.599 213.871,572.099 211,573.5C 208.514,580.263 207.181,587.263 207,594.5C 206.107,593.289 205.274,593.289 204.5,594.5C 201.937,598.253 201.27,602.253 202.5,606.5C 203.611,607.611 204.945,608.278 206.5,608.5C 209.851,606.158 213.518,604.324 217.5,603C 217.93,602.08 218.264,601.247 218.5,600.5C 219.354,601.522 220.354,602.355 221.5,603C 221.167,603.333 220.833,603.667 220.5,604C 221.885,606.52 223.551,608.853 225.5,611C 224.728,612.221 223.728,613.221 222.5,614C 222.833,614.333 223.167,614.667 223.5,615C 219.856,625.757 218.689,636.924 220,648.5C 220.465,649.931 221.299,651.097 222.5,652C 221.655,653.558 222.321,654.558 224.5,655C 223.207,655.49 221.873,655.657 220.5,655.5C 220.377,658.374 219.377,660.874 217.5,663C 217.5,665.333 217.5,667.667 217.5,670C 214.449,676.14 213.282,682.64 214,689.5C 215.299,690.09 216.132,691.09 216.5,692.5C 215.099,694.809 213.265,696.809 211,698.5C 210.231,701.099 210.398,703.599 211.5,706C 209.773,708.904 209.107,712.07 209.5,715.5C 208.5,715.5 207.5,715.5 206.5,715.5C 204.973,720.085 203.64,724.752 202.5,729.5C 202.39,731.374 203.056,732.874 204.5,734C 211.298,734.144 217.965,733.311 224.5,731.5C 219.334,734.169 213.834,736.169 208,737.5C 202.751,737.419 199.918,734.752 199.5,729.5C 211.569,689.685 217.569,649.018 217.5,607.5C 213.495,610.084 209.162,611.25 204.5,611C 200.818,609.651 198.818,606.985 198.5,603C 203.343,590.127 207.176,576.961 210,563.5C 215.519,532.904 222.186,502.571 230,472.5C 234.418,459.743 238.918,447.076 243.5,434.5C 238.069,434.272 232.736,433.439 227.5,432C 224.231,428.547 223.731,424.714 226,420.5C 242.851,403.097 258.518,384.764 273,365.5C 280.473,358.027 287.973,350.527 295.5,343C 289.067,340.037 283.234,336.203 278,331.5C 275.935,326.37 277.435,322.537 282.5,320C 294.417,317.139 306.084,313.472 317.5,309C 341.166,297.332 365.166,286.499 389.5,276.5 Z"/></g>
<g><path style="opacity:1" fill="#b7c6d3" d="M 720.5,466.5 C 721.68,469.521 722.68,472.687 723.5,476C 703.171,472.598 684.505,476.598 667.5,488C 661.922,492.907 657.089,498.407 653,504.5C 647.288,515.628 641.954,526.961 637,538.5C 633.285,544.444 628.118,548.611 621.5,551C 611.607,553.76 601.607,556.094 591.5,558C 564.351,566.434 558.184,582.6 573,606.5C 586.98,623.245 604.813,633.412 626.5,637C 643.226,637.999 659.892,637.499 676.5,635.5C 677.5,635.833 678.5,636.167 679.5,636.5C 667.204,653.124 654.204,669.124 640.5,684.5C 640.44,683.957 640.107,683.624 639.5,683.5C 633.1,691.953 626.933,700.62 621,709.5C 620.333,705.5 620.333,701.5 621,697.5C 622.404,690.829 623.404,684.163 624,677.5C 608.852,684.909 593.018,690.076 576.5,693C 582.167,686 587.833,679 593.5,672C 582.274,673.697 570.941,675.031 559.5,676C 553.167,676.667 546.833,676.667 540.5,676C 558.32,670.269 573.654,660.769 586.5,647.5C 580.285,642.962 574.785,637.629 570,631.5C 555.905,614.986 550.238,595.986 553,574.5C 548.786,578.382 544.286,581.882 539.5,585C 487.212,614.087 438.546,609.087 393.5,570C 397.283,570.881 400.95,572.381 404.5,574.5C 405.107,574.376 405.44,574.043 405.5,573.5C 402.868,572.133 403.202,571.299 406.5,571C 400.698,566.2 395.198,561.033 390,555.5C 367.464,526.37 358.464,493.37 363,456.5C 363.921,448.15 366.087,440.15 369.5,432.5C 363.354,434.159 357.521,437.159 352,441.5C 357.809,425.777 367.642,412.944 381.5,403C 376.953,403.648 372.453,404.814 368,406.5C 367.5,406.333 367,406.167 366.5,406C 391.227,387.086 419.227,376.419 450.5,374C 446.112,371.139 441.446,368.806 436.5,367C 447.524,366.382 458.524,366.715 469.5,368C 506.154,370.876 538.82,383.543 567.5,406C 580.445,417.049 588.945,430.882 593,447.5C 593.583,445.998 594.416,444.665 595.5,443.5C 602.025,462.985 604.525,482.985 603,503.5C 601.804,517.163 597.971,529.997 591.5,542C 606.535,541.066 619.035,534.899 629,523.5C 635.269,512.237 641.936,501.237 649,490.5C 657.335,481.753 666.835,474.587 677.5,469C 684.085,462.992 687.251,455.492 687,446.5C 691.5,451.667 696,456.833 700.5,462C 706.635,464.99 712.969,467.49 719.5,469.5C 720.386,468.675 720.719,467.675 720.5,466.5 Z"/></g>
<g><path style="opacity:1" fill="#090909" d="M 405.5,573.5 C 405.56,572.957 405.893,572.624 406.5,572.5C 413.866,575.717 421.533,577.217 429.5,577C 387.307,548.913 371.641,509.913 382.5,460C 390.305,434.877 404.971,414.877 426.5,400C 410.656,403.336 396.156,409.836 383,419.5C 382.333,418.833 382.333,418.167 383,417.5C 428.114,376.554 478.28,369.388 533.5,396C 579.952,424.416 597.119,465.249 585,518.5C 570.545,560.471 541.378,584.638 497.5,591C 464.786,595.605 434.12,589.771 405.5,573.5 Z"/></g>
<g><path style="opacity:1" fill="#f8f9f9" d="M 449.5,415.5 C 414.515,441.965 403.681,476.299 417,518.5C 427.382,543.716 445.216,561.382 470.5,571.5C 469.054,572.613 467.387,572.78 465.5,572C 426.862,558.69 404.029,531.857 397,491.5C 396.217,480.434 396.717,469.434 398.5,458.5C 399.075,455.088 400.408,452.088 402.5,449.5C 407.301,444.528 411.968,439.362 416.5,434C 426.311,425.109 437.311,418.943 449.5,415.5 Z"/></g>
<g><path style="opacity:1" fill="#fafbfa" d="M 519.5,419.5 C 542.362,419.699 555.695,431.033 559.5,453.5C 559.123,465.377 552.956,471.377 541,471.5C 518.145,467.317 507.145,453.65 508,430.5C 510.437,425.226 514.271,421.56 519.5,419.5 Z"/></g>
<g><path style="opacity:1" fill="#b5c6d4" d="M 449.5,415.5 C 437.311,418.943 426.311,425.109 416.5,434C 411.968,439.362 407.301,444.528 402.5,449.5C 412.837,427.137 429.504,411.304 452.5,402C 473.022,395.078 493.689,394.745 514.5,401C 491,397.998 469.334,402.831 449.5,415.5 Z"/></g>
<g><path style="opacity:0.214" fill="#3c3a36" d="M 803.5,524.5 C 820.587,551.355 825.92,580.355 819.5,611.5C 818.861,610.903 818.528,610.07 818.5,609C 822.119,587.36 820.286,566.194 813,545.5C 809.284,538.736 806.117,531.736 803.5,524.5 Z"/></g>
<g><path style="opacity:1" fill="#110a08" d="M 627.5,593.5 C 629.954,594.621 632.621,595.454 635.5,596C 659.5,596.333 683.5,596.667 707.5,597C 721.012,598.188 734.345,600.355 747.5,603.5C 765.324,609.989 777.991,621.989 785.5,639.5C 786.679,643.214 788.013,646.88 789.5,650.5C 791.393,648.048 792.726,645.381 793.5,642.5C 797.112,635.611 800.445,628.611 803.5,621.5C 804.28,624.709 804.114,627.709 803,630.5C 802.667,629.5 802.333,628.5 802,627.5C 801.501,631.486 801.334,635.486 801.5,639.5C 800.167,639.5 798.833,639.5 797.5,639.5C 797.772,643.902 797.439,648.235 796.5,652.5C 798.227,654.706 800.227,655.039 802.5,653.5C 800.549,657.229 798.216,660.729 795.5,664C 796.094,664.464 796.761,664.631 797.5,664.5C 794.749,668.757 791.416,672.59 787.5,676C 786.167,676.667 784.833,676.667 783.5,676C 779.478,665.604 775.645,655.104 772,644.5C 768.29,633.896 761.457,626.063 751.5,621C 749.5,620.333 747.5,620.333 745.5,621C 741.278,622.638 736.945,623.805 732.5,624.5C 732.265,623.903 731.765,623.57 731,623.5C 723.323,625.878 715.489,627.878 707.5,629.5C 708.347,628.034 709.68,627.2 711.5,627C 710.167,625.16 710.334,624.66 712,625.5C 712.483,624.552 712.649,623.552 712.5,622.5C 711.07,622.421 709.736,622.754 708.5,623.5C 707.749,622.624 707.249,621.624 707,620.5C 696.08,621.793 685.247,623.793 674.5,626.5C 655.443,627.975 636.443,627.475 617.5,625C 615.681,624.26 614.348,623.093 613.5,621.5C 617.462,622.376 621.462,623.042 625.5,623.5C 631.762,625.019 638.262,625.686 645,625.5C 652.064,625.661 658.897,624.994 665.5,623.5C 677.984,623.309 690.318,621.809 702.5,619C 703.056,618.617 703.389,618.117 703.5,617.5C 711.424,616.769 719.09,614.936 726.5,612C 722.853,611.226 719.186,610.559 715.5,610C 690.167,609.667 664.833,609.333 639.5,609C 628.826,607.664 618.826,604.331 609.5,599C 605.797,595.633 602.464,591.966 599.5,588C 596.788,587.174 594.455,587.674 592.5,589.5C 592.167,589.5 591.833,589.5 591.5,589.5C 590.176,590.85 589.176,590.683 588.5,589C 591.019,581.814 596.019,577.481 603.5,576C 610.907,574.691 617.907,575.691 624.5,579C 619.379,580.291 614.379,581.791 609.5,583.5C 614.663,588.413 620.663,591.746 627.5,593.5 Z"/></g>
<g><path style="opacity:0.329" fill="#332e2c" d="M 819.5,614.5 C 815.386,632.716 808.052,649.382 797.5,664.5C 796.761,664.631 796.094,664.464 795.5,664C 798.216,660.729 800.549,657.229 802.5,653.5C 809.873,640.739 815.039,627.073 818,612.5C 818.278,613.416 818.778,614.082 819.5,614.5 Z"/></g>
<g><path style="opacity:1" fill="#b7c6d4" d="M 670.5,730.5 C 673.066,734.609 675.899,738.609 679,742.5C 679.667,743.167 679.667,743.833 679,744.5C 669.186,741.727 659.686,738.061 650.5,733.5C 649.508,737.783 649.174,742.116 649.5,746.5C 650.134,754.903 649.467,762.903 647.5,770.5C 625.173,764.672 605.84,753.672 589.5,737.5C 585.1,755.959 577.266,772.625 566,787.5C 542.225,773.727 522.225,755.727 506,733.5C 492.644,753.689 475.811,770.356 455.5,783.5C 442.307,765.441 433.14,745.441 428,723.5C 427.586,723.043 427.086,722.709 426.5,722.5C 406.642,742.266 383.642,757.266 357.5,767.5C 353.186,747.597 349.852,727.597 347.5,707.5C 335.788,717.372 323.121,725.872 309.5,733C 293.941,740.575 277.941,747.075 261.5,752.5C 261.167,751.167 260.833,749.833 260.5,748.5C 263.159,731.386 265.492,714.219 267.5,697C 267.167,695.5 266.833,694 266.5,692.5C 251.35,703.162 235.183,712.162 218,719.5C 226.369,681.689 231.202,643.356 232.5,604.5C 233.806,599.384 234.473,594.051 234.5,588.5C 235.19,584.51 235.357,580.51 235,576.5C 229.927,582.244 224.26,587.244 218,591.5C 220.174,579.797 222.841,568.13 226,556.5C 231.334,520.678 239.834,485.678 251.5,451.5C 257.487,438.696 264.153,426.196 271.5,414C 265.414,415.024 259.414,416.69 253.5,419C 251.421,419.808 249.421,419.641 247.5,418.5C 251.518,413.762 255.518,409.095 259.5,404.5C 259.56,405.043 259.893,405.376 260.5,405.5C 263.07,404.366 265.736,403.532 268.5,403C 278.378,398.053 288.378,393.719 298.5,390C 286.622,405.248 277.455,422.082 271,440.5C 260.446,474.046 254.446,508.379 253,543.5C 260.798,535.362 269.465,528.362 279,522.5C 272.985,538.861 268.985,555.861 267,573.5C 266.593,597.19 266.26,620.856 266,644.5C 278.363,632.471 290.363,620.138 302,607.5C 300.032,616.651 298.699,625.985 298,635.5C 297.213,656.186 297.547,676.852 299,697.5C 322.736,688.305 344.069,675.305 363,658.5C 360.824,686.51 362.991,714.177 369.5,741.5C 393.862,730.648 415.028,715.314 433,695.5C 434.871,703.181 436.871,710.848 439,718.5C 443.165,734.161 449.998,748.494 459.5,761.5C 480.387,748.278 496.387,730.612 507.5,708.5C 519.996,732.831 538.163,751.831 562,765.5C 564.477,763.222 566.477,760.555 568,757.5C 575.703,742.772 581.703,727.439 586,711.5C 599.222,731.045 617.055,744.711 639.5,752.5C 640.167,739.5 640.833,726.5 641.5,713.5C 649.922,721.248 659.588,726.914 670.5,730.5 Z"/></g>
<g><path style="opacity:0.188" fill="#312f2d" d="M 732.5,624.5 C 721.165,628.42 709.498,631.586 697.5,634C 692.847,641.495 687.847,648.662 682.5,655.5C 681.475,655.103 681.308,654.437 682,653.5C 686.831,647.174 691.165,640.508 695,633.5C 699.102,631.933 703.269,630.6 707.5,629.5C 715.489,627.878 723.323,625.878 731,623.5C 731.765,623.57 732.265,623.903 732.5,624.5 Z"/></g>
<g><path style="opacity:0.645" fill="#343434" d="M 680.5,657.5 C 678.949,660.563 676.782,663.229 674,665.5C 669.386,697.658 678.719,724.991 702,747.5C 704.398,755.01 701.564,759.01 693.5,759.5C 692.274,759.48 691.274,759.147 690.5,758.5C 693.582,757.983 696.582,757.15 699.5,756C 701.187,754.087 701.687,751.92 701,749.5C 677.6,726.303 667.934,698.303 672,665.5C 675.038,662.797 677.705,659.797 680,656.5C 680.399,656.728 680.565,657.062 680.5,657.5 Z"/></g>
<g><path style="opacity:1" fill="#0b0c0c" d="M 532.5,252.5 C 532.389,253.117 532.056,253.617 531.5,254C 543.538,255.601 555.538,257.434 567.5,259.5C 568.416,259.457 569.083,259.124 569.5,258.5C 630.93,270.687 680.596,301.353 718.5,350.5C 722.979,357.443 727.479,364.443 732,371.5C 732.822,373.788 733.489,376.122 734,378.5C 734.209,384.581 734.709,390.581 735.5,396.5C 764.342,414.161 778.676,440.161 778.5,474.5C 778.319,481.905 777.819,489.238 777,496.5C 787.755,504.086 796.588,513.42 803.5,524.5C 806.117,531.736 809.284,538.736 813,545.5C 820.286,566.194 822.119,587.36 818.5,609C 818.528,610.07 818.861,610.903 819.5,611.5C 819.5,612.5 819.5,613.5 819.5,614.5C 818.778,614.082 818.278,613.416 818,612.5C 815.039,627.073 809.873,640.739 802.5,653.5C 800.227,655.039 798.227,654.706 796.5,652.5C 797.439,648.235 797.772,643.902 797.5,639.5C 798.833,639.5 800.167,639.5 801.5,639.5C 801.334,635.486 801.501,631.486 802,627.5C 802.333,628.5 802.667,629.5 803,630.5C 804.114,627.709 804.28,624.709 803.5,621.5C 803.5,620.5 803.5,619.5 803.5,618.5C 812.135,587.806 808.301,558.806 792,531.5C 780.752,515.412 765.918,504.078 747.5,497.5C 728.523,488.11 708.856,486.11 688.5,491.5C 686.62,491.229 685.287,491.896 684.5,493.5C 680.61,494.271 677.61,496.271 675.5,499.5C 671.232,501.933 667.732,505.266 665,509.5C 659.411,518.677 654.911,528.344 651.5,538.5C 642.444,555.208 628.444,564.874 609.5,567.5C 599.752,568.027 590.752,570.861 582.5,576C 577.219,580.465 576.219,585.632 579.5,591.5C 580.998,596.322 583.664,600.322 587.5,603.5C 589.963,607.3 593.296,609.967 597.5,611.5C 597.369,612.376 597.702,613.043 598.5,613.5C 603.72,615.941 608.72,618.608 613.5,621.5C 614.348,623.093 615.681,624.26 617.5,625C 636.443,627.475 655.443,627.975 674.5,626.5C 685.247,623.793 696.08,621.793 707,620.5C 707.249,621.624 707.749,622.624 708.5,623.5C 709.736,622.754 711.07,622.421 712.5,622.5C 712.649,623.552 712.483,624.552 712,625.5C 710.334,624.66 710.167,625.16 711.5,627C 709.68,627.2 708.347,628.034 707.5,629.5C 703.269,630.6 699.102,631.933 695,633.5C 691.165,640.508 686.831,647.174 682,653.5C 681.308,654.437 681.475,655.103 682.5,655.5C 682.167,656.5 681.5,657.167 680.5,657.5C 680.565,657.062 680.399,656.728 680,656.5C 677.705,659.797 675.038,662.797 672,665.5C 667.934,698.303 677.6,726.303 701,749.5C 701.687,751.92 701.187,754.087 699.5,756C 696.582,757.15 693.582,757.983 690.5,758.5C 687.5,758.5 684.5,758.5 681.5,758.5C 683.292,757.691 685.292,757.191 687.5,757C 679.072,755.947 670.738,754.447 662.5,752.5C 662.666,762.506 662.5,772.506 662,782.5C 661.167,783.333 660.333,784.167 659.5,785C 642.75,782.862 626.917,777.695 612,769.5C 611.601,769.728 611.435,770.062 611.5,770.5C 610.391,770.443 609.391,770.11 608.5,769.5C 608.586,768.504 608.252,767.671 607.5,767C 603.89,765.056 600.557,762.723 597.5,760C 596.833,759.333 596.167,759.333 595.5,760C 589.754,772.992 583.087,785.492 575.5,797.5C 575.624,798.107 575.957,798.44 576.5,798.5C 576.5,799.167 576.167,799.5 575.5,799.5C 572.566,801.696 569.233,803.029 565.5,803.5C 543.856,791.202 524.189,776.202 506.5,758.5C 505.148,759.524 503.815,760.524 502.5,761.5C 501.25,761.423 500.417,760.756 500,759.5C 498.513,760.253 498.346,761.086 499.5,762C 498.451,762.492 497.451,762.326 496.5,761.5C 495.141,765.124 492.974,768.124 490,770.5C 488.612,769.446 487.112,769.28 485.5,770C 485.833,770.333 486.167,770.667 486.5,771C 485.313,772.019 484.313,773.186 483.5,774.5C 483.846,775.696 484.346,775.696 485,774.5C 486.039,775.244 486.539,776.244 486.5,777.5C 481.722,781.729 476.722,785.729 471.5,789.5C 466.669,790.677 463.003,793.344 460.5,797.5C 455.855,800.361 451.355,800.027 447,796.5C 436.529,781.896 427.862,766.229 421,749.5C 419.855,748.316 418.688,748.316 417.5,749.5C 416.518,748.859 415.518,748.193 414.5,747.5C 413.813,749.555 412.646,751.221 411,752.5C 409.301,751.594 407.467,751.261 405.5,751.5C 405.719,752.675 405.386,753.675 404.5,754.5C 401.655,754.833 399.155,755.833 397,757.5C 396.667,756.833 396.333,756.167 396,755.5C 394.789,759.462 392.789,760.129 390,757.5C 389.018,758.759 388.685,760.092 389,761.5C 394.269,760.745 394.769,762.078 390.5,765.5C 389.808,764.975 389.308,764.308 389,763.5C 386.756,765.11 384.922,767.11 383.5,769.5C 379.967,770.958 376.301,771.958 372.5,772.5C 370.974,770.342 369.474,770.675 368,773.5C 367.333,772.833 366.667,772.167 366,771.5C 365.228,772.849 364.061,773.682 362.5,774C 363.744,776.988 362.744,779.155 359.5,780.5C 358.873,781.417 358.539,782.417 358.5,783.5C 353.116,785.695 348.949,784.362 346,779.5C 341.977,765.384 338.977,751.051 337,736.5C 336.612,735.572 335.945,734.905 335,734.5C 309.303,750.346 281.803,762.012 252.5,769.5C 247.248,769.082 244.581,766.249 244.5,761C 246.608,748.35 248.608,735.684 250.5,723C 250.167,721.833 249.833,720.667 249.5,719.5C 241.556,724.262 233.223,728.262 224.5,731.5C 217.965,733.311 211.298,734.144 204.5,734C 203.056,732.874 202.39,731.374 202.5,729.5C 203.64,724.752 204.973,720.085 206.5,715.5C 207.5,715.5 208.5,715.5 209.5,715.5C 209.107,712.07 209.773,708.904 211.5,706C 210.398,703.599 210.231,701.099 211,698.5C 213.265,696.809 215.099,694.809 216.5,692.5C 216.132,691.09 215.299,690.09 214,689.5C 213.282,682.64 214.449,676.14 217.5,670C 217.5,667.667 217.5,665.333 217.5,663C 219.377,660.874 220.377,658.374 220.5,655.5C 221.873,655.657 223.207,655.49 224.5,655C 222.321,654.558 221.655,653.558 222.5,652C 221.299,651.097 220.465,649.931 220,648.5C 218.689,636.924 219.856,625.757 223.5,615C 223.167,614.667 222.833,614.333 222.5,614C 223.728,613.221 224.728,612.221 225.5,611C 223.551,608.853 221.885,606.52 220.5,604C 220.833,603.667 221.167,603.333 221.5,603C 220.354,602.355 219.354,601.522 218.5,600.5C 218.264,601.247 217.93,602.08 217.5,603C 213.518,604.324 209.851,606.158 206.5,608.5C 204.945,608.278 203.611,607.611 202.5,606.5C 201.27,602.253 201.937,598.253 204.5,594.5C 205.274,593.289 206.107,593.289 207,594.5C 207.181,587.263 208.514,580.263 211,573.5C 213.871,572.099 216.037,570.599 217.5,569C 216.672,568.085 215.672,567.419 214.5,567C 215.458,565.853 215.125,564.853 213.5,564C 216.544,563.641 216.878,562.974 214.5,562C 215.068,560.704 215.068,559.204 214.5,557.5C 214.692,554.002 215.692,550.835 217.5,548C 216.905,544.488 217.405,540.988 219,537.5C 219.333,538.167 219.667,538.833 220,539.5C 221.02,538.109 221.853,536.609 222.5,535C 221.755,531.953 221.422,528.953 221.5,526C 224.612,525.149 224.946,523.983 222.5,522.5C 223.313,521.186 224.313,520.019 225.5,519C 223.993,517.527 223.326,515.693 223.5,513.5C 224.614,504.315 226.448,494.982 229,485.5C 229.774,483.061 231.274,481.227 233.5,480C 232.167,479.333 232.167,478.667 233.5,478C 235.108,477.342 236.275,477.842 237,479.5C 237.393,477.801 236.893,476.301 235.5,475C 236.022,474.05 236.689,473.216 237.5,472.5C 237.291,471.914 236.957,471.414 236.5,471C 237.833,470.667 239.167,470.333 240.5,470C 238.122,469.026 238.456,468.359 241.5,468C 239.431,467.676 239.098,466.842 240.5,465.5C 238.682,464.176 237.682,462.343 237.5,460C 238.281,455.268 239.781,450.768 242,446.5C 243.015,443.937 244.515,442.604 246.5,442.5C 245.209,440.41 245.876,439.076 248.5,438.5C 248.94,439.698 249.273,440.865 249.5,442C 247.009,442.626 247.009,443.459 249.5,444.5C 248.371,446.529 248.871,446.863 251,445.5C 251.495,447.473 251.662,449.473 251.5,451.5C 239.834,485.678 231.334,520.678 226,556.5C 222.841,568.13 220.174,579.797 218,591.5C 224.26,587.244 229.927,582.244 235,576.5C 235.357,580.51 235.19,584.51 234.5,588.5C 233.043,593.598 232.376,598.931 232.5,604.5C 231.202,643.356 226.369,681.689 218,719.5C 235.183,712.162 251.35,703.162 266.5,692.5C 266.833,694 267.167,695.5 267.5,697C 265.492,714.219 263.159,731.386 260.5,748.5C 260.833,749.833 261.167,751.167 261.5,752.5C 277.941,747.075 293.941,740.575 309.5,733C 323.121,725.872 335.788,717.372 347.5,707.5C 349.852,727.597 353.186,747.597 357.5,767.5C 383.642,757.266 406.642,742.266 426.5,722.5C 427.086,722.709 427.586,723.043 428,723.5C 433.14,745.441 442.307,765.441 455.5,783.5C 475.811,770.356 492.644,753.689 506,733.5C 522.225,755.727 542.225,773.727 566,787.5C 577.266,772.625 585.1,755.959 589.5,737.5C 605.84,753.672 625.173,764.672 647.5,770.5C 648.209,771.404 649.209,771.737 650.5,771.5C 650.826,762.983 650.493,754.65 649.5,746.5C 649.174,742.116 649.508,737.783 650.5,733.5C 659.686,738.061 669.186,741.727 679,744.5C 679.667,743.833 679.667,743.167 679,742.5C 675.899,738.609 673.066,734.609 670.5,730.5C 663.352,713.906 659.018,696.573 657.5,678.5C 650.195,683.305 643.029,688.305 636,693.5C 636.913,690.341 638.413,687.341 640.5,684.5C 654.204,669.124 667.204,653.124 679.5,636.5C 678.5,636.167 677.5,635.833 676.5,635.5C 659.892,637.499 643.226,637.999 626.5,637C 604.813,633.412 586.98,623.245 573,606.5C 558.184,582.6 564.351,566.434 591.5,558C 601.607,556.094 611.607,553.76 621.5,551C 628.118,548.611 633.285,544.444 637,538.5C 641.954,526.961 647.288,515.628 653,504.5C 657.089,498.407 661.922,492.907 667.5,488C 684.505,476.598 703.171,472.598 723.5,476C 722.68,472.687 721.68,469.521 720.5,466.5C 719.281,455.526 718.281,444.526 717.5,433.5C 718.677,418.275 720.343,403.108 722.5,388C 722.333,385.167 722.167,382.333 722,379.5C 702.118,345.951 675.284,319.451 641.5,300C 602.787,279.32 561.454,267.653 517.5,265C 482.159,264.343 446.825,264.676 411.5,266C 416.963,271.23 422.963,275.73 429.5,279.5C 415.077,281.773 401.077,285.606 387.5,291C 363.53,302.489 339.53,313.655 315.5,324.5C 310.332,325.834 305.332,327.668 300.5,330C 305.182,332.587 310.182,334.087 315.5,334.5C 314.4,335.558 313.066,336.392 311.5,337C 314.86,337.961 315.194,339.794 312.5,342.5C 310.482,341.187 309.315,341.853 309,344.5C 307.989,343.663 306.822,343.33 305.5,343.5C 305.307,339.551 304.807,339.551 304,343.5C 297.416,341.366 290.916,338.199 284.5,334C 282.891,331.618 281.224,329.284 279.5,327C 280.071,325.795 280.738,324.628 281.5,323.5C 282.833,323.167 284.167,322.833 285.5,322.5C 286.167,323.167 286.833,323.833 287.5,324.5C 294.928,319.789 302.928,316.122 311.5,313.5C 314.831,315.207 317.997,314.541 321,311.5C 321.333,312.167 321.667,312.833 322,313.5C 323.194,311.475 324.694,311.141 326.5,312.5C 329.32,311.35 329.654,310.184 327.5,309C 329.167,307.5 330.833,306 332.5,304.5C 344.138,299.713 355.471,294.213 366.5,288C 370.942,286.353 375.275,285.02 379.5,284C 382.914,281.598 386.58,279.598 390.5,278C 389.944,277.617 389.611,277.117 389.5,276.5C 392.096,275.243 394.763,274.076 397.5,273C 393.741,268.748 391.075,263.915 389.5,258.5C 389.549,254.896 391.216,252.396 394.5,251C 404.634,251.524 414.801,252.024 425,252.5C 460.846,250.068 496.679,250.068 532.5,252.5 Z"/></g>
<g><path style="opacity:1" fill="#767d81" d="M 649.5,746.5 C 650.493,754.65 650.826,762.983 650.5,771.5C 649.209,771.737 648.209,771.404 647.5,770.5C 649.467,762.903 650.134,754.903 649.5,746.5 Z"/></g>
<g><path style="opacity:0.966" fill="#1e1f1f" d="M 417.5,749.5 C 399.307,763.106 379.64,774.439 358.5,783.5C 358.539,782.417 358.873,781.417 359.5,780.5C 362.744,779.155 363.744,776.988 362.5,774C 364.061,773.682 365.228,772.849 366,771.5C 366.667,772.167 367.333,772.833 368,773.5C 369.474,770.675 370.974,770.342 372.5,772.5C 376.301,771.958 379.967,770.958 383.5,769.5C 384.922,767.11 386.756,765.11 389,763.5C 389.308,764.308 389.808,764.975 390.5,765.5C 394.769,762.078 394.269,760.745 389,761.5C 388.685,760.092 389.018,758.759 390,757.5C 392.789,760.129 394.789,759.462 396,755.5C 396.333,756.167 396.667,756.833 397,757.5C 399.155,755.833 401.655,754.833 404.5,754.5C 405.386,753.675 405.719,752.675 405.5,751.5C 407.467,751.261 409.301,751.594 411,752.5C 412.646,751.221 413.813,749.555 414.5,747.5C 415.518,748.193 416.518,748.859 417.5,749.5 Z"/></g>
<g><path style="opacity:1" fill="#e2ad51" d="M 801.5,595.5 C 802.167,603.167 802.833,610.833 803.5,618.5C 803.5,619.5 803.5,620.5 803.5,621.5C 800.445,628.611 797.112,635.611 793.5,642.5C 796.23,633.636 798.563,624.636 800.5,615.5C 801.497,608.866 801.83,602.2 801.5,595.5 Z"/></g>
<g><path style="opacity:1" fill="#b6734b" d="M 625.5,623.5 C 638.833,623.5 652.167,623.5 665.5,623.5C 658.897,624.994 652.064,625.661 645,625.5C 638.262,625.686 631.762,625.019 625.5,623.5 Z"/></g>
<g><path style="opacity:1" fill="#e07a3b" d="M 703.5,617.5 C 703.389,618.117 703.056,618.617 702.5,619C 690.318,621.809 677.984,623.309 665.5,623.5C 652.167,623.5 638.833,623.5 625.5,623.5C 621.462,623.042 617.462,622.376 613.5,621.5C 608.72,618.608 603.72,615.941 598.5,613.5C 597.702,613.043 597.369,612.376 597.5,611.5C 599.176,606.134 602.843,602.801 608.5,601.5C 617.235,605.371 626.235,608.371 635.5,610.5C 658.824,611.5 682.157,611.833 705.5,611.5C 705.386,613.718 704.72,615.718 703.5,617.5 Z"/></g>
<g><path style="opacity:1" fill="#d47d48" d="M 703.5,617.5 C 704.72,615.718 705.386,613.718 705.5,611.5C 682.157,611.833 658.824,611.5 635.5,610.5C 626.235,608.371 617.235,605.371 608.5,601.5C 602.843,602.801 599.176,606.134 597.5,611.5C 593.296,609.967 589.963,607.3 587.5,603.5C 590.711,603.988 593.544,603.321 596,601.5C 597.147,602.458 598.147,602.125 599,600.5C 600.337,601.765 601.837,602.265 603.5,602C 602.495,600.493 601.162,599.327 599.5,598.5C 600.357,595.549 600.357,592.549 599.5,589.5C 597.167,589.5 594.833,589.5 592.5,589.5C 594.455,587.674 596.788,587.174 599.5,588C 602.464,591.966 605.797,595.633 609.5,599C 618.826,604.331 628.826,607.664 639.5,609C 664.833,609.333 690.167,609.667 715.5,610C 719.186,610.559 722.853,611.226 726.5,612C 719.09,614.936 711.424,616.769 703.5,617.5 Z"/></g>
<g><path style="opacity:1" fill="#6e787c" d="M 234.5,588.5 C 234.473,594.051 233.806,599.384 232.5,604.5C 232.376,598.931 233.043,593.598 234.5,588.5 Z"/></g>
<g><path style="opacity:1" fill="#e27c3c" d="M 591.5,589.5 C 591.833,589.5 592.167,589.5 592.5,589.5C 594.833,589.5 597.167,589.5 599.5,589.5C 600.357,592.549 600.357,595.549 599.5,598.5C 601.162,599.327 602.495,600.493 603.5,602C 601.837,602.265 600.337,601.765 599,600.5C 598.147,602.125 597.147,602.458 596,601.5C 593.544,603.321 590.711,603.988 587.5,603.5C 583.664,600.322 580.998,596.322 579.5,591.5C 579.5,588.167 579.5,584.833 579.5,581.5C 587.575,581.098 589.575,584.431 585.5,591.5C 588.082,591.975 590.082,591.308 591.5,589.5 Z"/></g>
<g><path style="opacity:1" fill="#d07b48" d="M 627.5,593.5 C 662.853,593.36 698.186,594.027 733.5,595.5C 733.5,596.833 733.5,598.167 733.5,599.5C 736.898,599.18 740.232,599.513 743.5,600.5C 745.332,601.057 746.665,602.057 747.5,603.5C 734.345,600.355 721.012,598.188 707.5,597C 683.5,596.667 659.5,596.333 635.5,596C 632.621,595.454 629.954,594.621 627.5,593.5 Z"/></g>
<g><path style="opacity:1" fill="#df7735" d="M 625.5,575.5 C 633.993,580.799 643.326,583.966 653.5,585C 676.191,585.115 698.858,585.782 721.5,587C 738.56,588.205 753.894,593.872 767.5,604C 777.889,613.61 783.889,625.444 785.5,639.5C 777.991,621.989 765.324,609.989 747.5,603.5C 746.665,602.057 745.332,601.057 743.5,600.5C 740.232,599.513 736.898,599.18 733.5,599.5C 733.5,598.167 733.5,596.833 733.5,595.5C 698.186,594.027 662.853,593.36 627.5,593.5C 625.3,591.383 622.633,589.716 619.5,588.5C 617.995,587.158 617.328,585.492 617.5,583.5C 620.167,583.5 622.833,583.5 625.5,583.5C 625.5,580.833 625.5,578.167 625.5,575.5 Z"/></g>
<g><path style="opacity:1" fill="#f7e19a" d="M 688.5,491.5 C 700.167,491.5 711.833,491.5 723.5,491.5C 723.585,493.929 724.585,495.929 726.5,497.5C 727.711,496.726 727.711,495.893 726.5,495C 727.6,493.977 728.933,493.477 730.5,493.5C 735.778,496.489 741.444,497.822 747.5,497.5C 765.918,504.078 780.752,515.412 792,531.5C 808.301,558.806 812.135,587.806 803.5,618.5C 802.833,610.833 802.167,603.167 801.5,595.5C 797.67,549.651 774.336,518.484 731.5,502C 716.407,496.151 700.74,493.317 684.5,493.5C 685.287,491.896 686.62,491.229 688.5,491.5 Z"/></g>
<g><path style="opacity:1" fill="#d97d43" d="M 609.5,567.5 C 614.799,570.15 620.132,572.816 625.5,575.5C 625.5,578.167 625.5,580.833 625.5,583.5C 622.833,583.5 620.167,583.5 617.5,583.5C 617.328,585.492 617.995,587.158 619.5,588.5C 622.633,589.716 625.3,591.383 627.5,593.5C 620.663,591.746 614.663,588.413 609.5,583.5C 614.379,581.791 619.379,580.291 624.5,579C 617.907,575.691 610.907,574.691 603.5,576C 596.019,577.481 591.019,581.814 588.5,589C 589.176,590.683 590.176,590.85 591.5,589.5C 590.082,591.308 588.082,591.975 585.5,591.5C 589.575,584.431 587.575,581.098 579.5,581.5C 579.5,584.833 579.5,588.167 579.5,591.5C 576.219,585.632 577.219,580.465 582.5,576C 590.752,570.861 599.752,568.027 609.5,567.5 Z"/></g>
<g><path style="opacity:1" fill="#b9c9d6" d="M 398.5,458.5 C 396.717,469.434 396.217,480.434 397,491.5C 404.029,531.857 426.862,558.69 465.5,572C 467.387,572.78 469.054,572.613 470.5,571.5C 480.148,575.022 490.148,576.689 500.5,576.5C 510.001,576.162 519.335,574.995 528.5,573C 479.327,593.083 438.827,581.916 407,539.5C 391.425,513.678 388.591,486.678 398.5,458.5 Z"/></g>
<g><path style="opacity:1" fill="#404647" d="M 432.5,520.5 C 438.443,516.696 444.776,513.696 451.5,511.5C 451.932,512.71 452.599,513.71 453.5,514.5C 450.077,521.338 451.41,527.171 457.5,532C 462.244,533.99 466.911,533.824 471.5,531.5C 477.855,536.799 485.188,540.299 493.5,542C 520.732,546.459 542.899,537.959 560,516.5C 562.861,512.112 565.194,507.446 567,502.5C 566.371,528.9 553.871,547.4 529.5,558C 493.961,570.147 464.128,561.981 440,533.5C 436.983,529.466 434.483,525.133 432.5,520.5 Z"/></g>
<g><path style="opacity:1" fill="#e7a246" d="M 675.5,499.5 C 674.218,501.464 672.885,503.464 671.5,505.5C 672.942,508.028 673.442,510.695 673,513.5C 672.25,512.874 671.416,512.374 670.5,512C 671.711,511.107 671.711,510.274 670.5,509.5C 669.167,510.833 667.833,512.167 666.5,513.5C 664.171,519.117 661.505,524.45 658.5,529.5C 656.388,532.75 654.055,535.75 651.5,538.5C 654.911,528.344 659.411,518.677 665,509.5C 667.732,505.266 671.232,501.933 675.5,499.5 Z"/></g>
<g><path style="opacity:1" fill="#f9f9f8" d="M 471.5,531.5 C 466.911,533.824 462.244,533.99 457.5,532C 451.41,527.171 450.077,521.338 453.5,514.5C 459.913,506.945 466.747,506.612 474,513.5C 477.787,520.154 476.954,526.154 471.5,531.5 Z"/></g>
<g><path style="opacity:1" fill="#f3a53a" d="M 684.5,493.5 C 700.74,493.317 716.407,496.151 731.5,502C 774.336,518.484 797.67,549.651 801.5,595.5C 801.83,602.2 801.497,608.866 800.5,615.5C 798.563,624.636 796.23,633.636 793.5,642.5C 792.726,645.381 791.393,648.048 789.5,650.5C 788.013,646.88 786.679,643.214 785.5,639.5C 783.889,625.444 777.889,613.61 767.5,604C 753.894,593.872 738.56,588.205 721.5,587C 698.858,585.782 676.191,585.115 653.5,585C 643.326,583.966 633.993,580.799 625.5,575.5C 620.132,572.816 614.799,570.15 609.5,567.5C 628.444,564.874 642.444,555.208 651.5,538.5C 654.055,535.75 656.388,532.75 658.5,529.5C 661.505,524.45 664.171,519.117 666.5,513.5C 667.833,512.167 669.167,510.833 670.5,509.5C 671.711,510.274 671.711,511.107 670.5,512C 671.416,512.374 672.25,512.874 673,513.5C 673.442,510.695 672.942,508.028 671.5,505.5C 672.885,503.464 674.218,501.464 675.5,499.5C 677.61,496.271 680.61,494.271 684.5,493.5 Z"/></g>
<g><path style="opacity:1" fill="#faebab" d="M 743.5,515.5 C 751.36,515.93 757.693,519.263 762.5,525.5C 763.466,527.396 763.799,529.396 763.5,531.5C 755.904,531.87 749.571,529.203 744.5,523.5C 743.52,520.914 743.187,518.247 743.5,515.5 Z"/></g>
<g><path style="opacity:1" fill="#140a07" d="M 700.5,518.5 C 703.119,518.232 705.619,518.565 708,519.5C 708.758,523.329 707.758,526.662 705,529.5C 696.91,533.174 689.077,537.007 681.5,541C 684.843,530.835 691.176,523.335 700.5,518.5 Z"/></g>
<g><path style="opacity:1" fill="#24272d" d="M 451.5,511.5 C 444.776,513.696 438.443,516.696 432.5,520.5C 427.736,511.179 425.403,501.179 425.5,490.5C 431.167,489.167 436.833,487.833 442.5,486.5C 443.327,495.65 446.327,503.984 451.5,511.5 Z"/></g>
<g><path style="opacity:1" fill="#f1e0a7" d="M 747.5,497.5 C 741.444,497.822 735.778,496.489 730.5,493.5C 728.933,493.477 727.6,493.977 726.5,495C 727.711,495.893 727.711,496.726 726.5,497.5C 724.585,495.929 723.585,493.929 723.5,491.5C 711.833,491.5 700.167,491.5 688.5,491.5C 708.856,486.11 728.523,488.11 747.5,497.5 Z"/></g>
<g><path style="opacity:1" fill="#f7f8f5" d="M 739.5,419.5 C 752.212,422.899 758.045,431.233 757,444.5C 754.404,448.69 750.904,449.524 746.5,447C 738.251,441.332 734.751,433.498 736,423.5C 736.69,421.65 737.856,420.316 739.5,419.5 Z"/></g>
<g><path style="opacity:1" fill="#b7c4cc" d="M 315.5,324.5 C 315.611,325.117 315.944,325.617 316.5,326C 326.064,327.921 335.731,328.921 345.5,329C 340.473,331.513 335.473,334.013 330.5,336.5C 325.68,335.513 320.68,334.847 315.5,334.5C 310.182,334.087 305.182,332.587 300.5,330C 305.332,327.668 310.332,325.834 315.5,324.5 Z"/></g>
<g><path style="opacity:0.934" fill="#2c2e2d" d="M 502.5,761.5 C 497.5,767.167 492.167,772.5 486.5,777.5C 486.539,776.244 486.039,775.244 485,774.5C 484.346,775.696 483.846,775.696 483.5,774.5C 484.313,773.186 485.313,772.019 486.5,771C 486.167,770.667 485.833,770.333 485.5,770C 487.112,769.28 488.612,769.446 490,770.5C 492.974,768.124 495.141,765.124 496.5,761.5C 497.451,762.326 498.451,762.492 499.5,762C 498.346,761.086 498.513,760.253 500,759.5C 500.417,760.756 501.25,761.423 502.5,761.5 Z"/></g>
<g><path style="opacity:0.167" fill="#303132" d="M 608.5,769.5 C 604.375,766.691 600.041,764.357 595.5,762.5C 590.727,775.383 584.393,787.383 576.5,798.5C 575.957,798.44 575.624,798.107 575.5,797.5C 583.087,785.492 589.754,772.992 595.5,760C 596.167,759.333 596.833,759.333 597.5,760C 600.557,762.723 603.89,765.056 607.5,767C 608.252,767.671 608.586,768.504 608.5,769.5 Z"/></g>
<g><path style="opacity:0.124" fill="#353636" d="M 681.5,758.5 C 676.123,757.489 670.79,756.156 665.5,754.5C 664.668,763.482 664.168,772.482 664,781.5C 662.02,786.906 658.186,788.739 652.5,787C 637.997,783.121 624.331,777.621 611.5,770.5C 611.435,770.062 611.601,769.728 612,769.5C 626.917,777.695 642.75,782.862 659.5,785C 660.333,784.167 661.167,783.333 662,782.5C 662.5,772.506 662.666,762.506 662.5,752.5C 670.738,754.447 679.072,755.947 687.5,757C 685.292,757.191 683.292,757.691 681.5,758.5 Z"/></g>
<g><path style="opacity:0.251" fill="#454646" d="M 471.5,789.5 C 468.048,792.399 464.382,795.066 460.5,797.5C 463.003,793.344 466.669,790.677 471.5,789.5 Z"/></g>
<g><path style="opacity:0.098" fill="#484849" d="M 575.5,799.5 C 574.309,802.874 571.809,804.54 568,804.5C 566.93,804.472 566.097,804.139 565.5,803.5C 569.233,803.029 572.566,801.696 575.5,799.5 Z"/></g>
</svg>
